<svg id="svg2" xmlns:rdf="http://www.w3.org/1999/02/22-rdf-syntax-ns#" xmlns="http://www.w3.org/2000/svg" height="48" width="48" version="1.0" xmlns:cc="http://web.resource.org/cc/" xmlns:xlink="http://www.w3.org/1999/xlink" xmlns:dc="http://purl.org/dc/elements/1.1/"><defs id="defs4"><radialGradient id="radialGradient4354" gradientUnits="userSpaceOnUse" cy="19.031" cx="11.25" gradientTransform="matrix(1 0 0 .28295 0 13.646)" r="8.0625"><stop id="stop5107" offset="0"/><stop id="stop5109" stop-opacity="0" offset="1"/></radialGradient><linearGradient id="linearGradient5315" y2="40.231" gradientUnits="userSpaceOnUse" x2="34.744" gradientTransform="matrix(1.0046 0 0 1 -1.0377 .047681)" y1="10.445" x1="17.499"><stop id="stop5115" stop-color="#fff" offset="0"/><stop id="stop5117" stop-color="#fff" stop-opacity="0" offset="1"/></linearGradient></defs><g id="layer1"><path id="path4346" opacity=".16292" style="color:black" d="m19.312 19.031a8.0625 2.2812 0 1 1 -16.124 0 8.0625 2.2812 0 1 1 16.124 0z" transform="matrix(2.4806 0 0 2.411 -3.907 -5.3836)" fill="url(#radialGradient4354)"/><path id="path4348" style="color:black" d="m22.502 9.5398l19.004 16.506-19.004 16.423v-7.87h-14.996l0.0004-17.055h14.996v-8.0042z" stroke="#204a87" fill="#3465a4"/><path id="path4352" opacity=".35393" style="color:black" d="m8 18.048v7.952l32.769-0.024-17.615-15.345v7.417h-15.154z" fill="#729fcf"/><path id="path4360" opacity="0.354" style="color:black" d="m23.573 11.681l16.517 14.386-16.517 14.199v-6.738h-15.067l0.0004-14.978h15.067v-6.869z" stroke="url(#linearGradient5315)" fill="none"/></g></svg>